HIERARCHY
ROOT Hips
{
	OFFSET	0.00	0.00	0.00
	CHANNELS 6 Xposition Yposition Zposition Zrotation Xrotation Yrotation
	JOINT LeftUpLeg
	{
		OFFSET	 0.126116	-0.014019	-0.065224
		CHANNELS 3 Zrotation Xrotation Yrotation
		JOINT LeftLeg
		{
			OFFSET	 0.000000	 0.000000	 0.569914
			CHANNELS 3 Zrotation Xrotation Yrotation
			JOINT LeftFoot
			{
				OFFSET	 0.000000	 0.000000	 0.544423
				CHANNELS 3 Zrotation Xrotation Yrotation
				JOINT LeftToeBase
				{
					OFFSET	 0.000000	 0.000000	 0.207117
					CHANNELS 3 Zrotation Xrotation Yrotation
					End Site
					{
						OFFSET	 0.000000	 0.000000	 0.207117
					}
				}
			}
		}
	}
	JOINT RightUpLeg
	{
		OFFSET	-0.124023	-0.008373	-0.065224
		CHANNELS 3 Zrotation Xrotation Yrotation
		JOINT RightLeg
		{
			OFFSET	 0.000000	 0.000000	 0.570047
			CHANNELS 3 Zrotation Xrotation Yrotation
			JOINT RightFoot
			{
				OFFSET	 0.000000	 0.000000	 0.544354
				CHANNELS 3 Zrotation Xrotation Yrotation
				JOINT RightToeBase
				{
					OFFSET	 0.000000	 0.000000	 0.207540
					CHANNELS 3 Zrotation Xrotation Yrotation
					End Site
					{
						OFFSET	 0.000000	 0.000000	 0.207540
					}
				}
			}
		}
	}
	JOINT Spine
	{
		OFFSET	 0.000184	-0.007763	 0.117403
		CHANNELS 3 Zrotation Xrotation Yrotation
		JOINT Spine1
		{
			OFFSET	 0.000000	 0.000000	 0.137269
			CHANNELS 3 Zrotation Xrotation Yrotation
			JOINT Spine2
			{
				OFFSET	 0.000000	 0.000000	 0.156879
				CHANNELS 3 Zrotation Xrotation Yrotation
				JOINT LeftShoulder
				{
					OFFSET	 0.080501	-0.002496	 0.160144
					CHANNELS 3 Zrotation Xrotation Yrotation
					JOINT LeftArm
					{
						OFFSET	 0.000000	 0.000000	 0.164363
						CHANNELS 3 Zrotation Xrotation Yrotation
						JOINT LeftForeArm
						{
							OFFSET	 0.000000	 0.000000	 0.364576
							CHANNELS 3 Zrotation Xrotation Yrotation
							JOINT LeftHand
							{
								OFFSET	 0.000000	 0.000000	 0.360812
								CHANNELS 3 Zrotation Xrotation Yrotation
								JOINT LeftHandIndex1
								{
									OFFSET	 0.000000	 0.000000	 0.086006
									CHANNELS 3 Zrotation Xrotation Yrotation
									JOINT LeftHandIndex2
									{
										OFFSET	 0.000000	 0.000000	 0.047236
										CHANNELS 3 Zrotation Xrotation Yrotation
										JOINT LeftHandIndex3
										{
											OFFSET	-0.004284	-0.000551	 0.038166
											CHANNELS 3 Zrotation Xrotation Yrotation
											End Site
											{
												OFFSET	-0.004284	-0.000551	 0.038166
											}
										}
									}
								}
							}
						}
					}
				}
				JOINT Neck
				{
					OFFSET	 0.000000	 0.000000	 0.176489
					CHANNELS 3 Zrotation Xrotation Yrotation
					JOINT Head
					{
						OFFSET	 0.000000	-0.001747	 0.077940
						CHANNELS 3 Zrotation Xrotation Yrotation
						End Site
						{
							OFFSET	 0.000000	-0.001747	 0.077940
						}
					}
				}
				JOINT RightShoulder
				{
					OFFSET	-0.080363	 0.000306	 0.159706
					CHANNELS 3 Zrotation Xrotation Yrotation
					JOINT RightArm
					{
						OFFSET	 0.000000	 0.000000	 0.164196
						CHANNELS 3 Zrotation Xrotation Yrotation
						JOINT RightForeArm
						{
							OFFSET	 0.000000	 0.000000	 0.365611
							CHANNELS 3 Zrotation Xrotation Yrotation
							JOINT RightHand
							{
								OFFSET	 0.000000	 0.000000	 0.360648
								CHANNELS 3 Zrotation Xrotation Yrotation
								JOINT RightHandIndex1
								{
									OFFSET	 0.000000	 0.000000	 0.069977
									CHANNELS 3 Zrotation Xrotation Yrotation
									JOINT RightHandIndex2
									{
										OFFSET	 0.000000	 0.000000	 0.052305
										CHANNELS 3 Zrotation Xrotation Yrotation
										JOINT RightHandIndex3
										{
											OFFSET	 0.009002	-0.000782	 0.042196
											CHANNELS 3 Zrotation Xrotation Yrotation
											End Site
											{
												OFFSET	 0.009002	-0.000782	 0.042196
											}
										}
									}
								}
							}
						}
					}
				}
			}
		}
	}
}
MOTION
Frames:    11
Frame Time: 0.03333334
-5.961894	-18.479320	-0.061633	-43.950770	 0.892352	 0.539266	 2.116734	-33.661960	 172.345700	-6.118715	-68.294430	-6.663935	 177.145400	 86.808070	 179.971300	-2.326457	 37.253940	-0.204319	-0.252278	-35.255240	-177.439200	 1.772914	-72.923630	 4.333758	-177.932600	 85.426540	 179.547200	 2.404333	 21.743880	-0.138264	-0.972861	 14.303380	 1.424529	-1.049407	 7.713865	-1.889781	-1.012187	 4.717726	-0.025305	-137.423300	 89.541580	-130.989200	 49.338140	 61.185650	-77.470390	-13.180660	-2.265090	-19.999420	 0.857124	-2.220084	-5.361532	-3.812334	 37.924440	-2.927599	-2.450526	 36.184240	 0.754587	-1.378229	 35.397820	-2.634230	 1.568808	 2.520720	-3.138000	 0.312566	 7.822402	 2.947979	 93.967630	 85.946530	 171.464900	-54.124830	 70.473160	 73.375960	-6.440668	-12.371310	 21.123270	-27.300150	-3.209001	 9.542192	 6.437017	 35.671460	-0.771858	 2.830251	 35.756010	-7.813440	-2.350882	 35.473990	 5.254307
-5.959665	-18.479090	-0.053290	-44.577680	 1.965403	 0.448009	 2.316417	-34.161680	 172.447000	-5.460604	-67.055170	-5.789999	 176.692400	 87.282640	-179.367900	-2.336744	 36.109120	-0.175844	 0.108495	-35.655060	-177.549200	 1.568455	-71.164660	 4.338636	-177.446000	 85.765380	 179.206700	 2.405616	 20.844070	-0.156297	-1.001895	 14.328080	 1.345898	-1.028472	 7.540775	-1.877592	-0.898405	 4.546953	-0.023804	-130.297500	 89.476230	-138.109900	 48.067480	 61.186680	-76.653770	-13.138350	-2.340931	-19.436760	 1.188909	-2.233128	-5.358525	-3.812334	 37.924440	-2.927599	-2.450526	 36.184240	 0.754587	-1.378229	 35.397820	-2.634230	 1.692034	 2.365156	-3.105416	 0.417589	 7.684518	 3.304100	 94.120280	 85.986720	 171.222100	-54.061800	 70.699160	 73.231850	-6.550294	-12.282010	 20.737050	-27.539760	-3.211240	 9.537540	 6.437017	 35.671460	-0.771858	 2.830251	 35.756010	-7.813440	-2.350882	 35.473990	 5.254307
-5.957272	-18.478860	-0.045053	-45.153220	 3.057859	 0.292777	 2.508060	-34.712290	 172.655000	-4.893316	-65.889900	-5.022908	 175.989600	 87.769620	-178.453900	-2.344996	 35.115680	-0.151664	 0.469443	-36.164190	-177.530600	 1.324991	-69.604760	 4.302784	-176.916300	 86.137810	 178.792000	 2.406186	 20.347070	-0.166207	-1.051956	 14.305500	 1.306801	-1.027036	 7.376501	-1.841246	-0.788471	 4.389118	-0.021978	-125.661000	 89.420880	-142.763900	 46.791710	 61.118430	-75.813230	-13.141590	-2.373674	-18.901800	 1.401377	-2.244062	-5.356153	-3.812334	 37.924440	-2.927599	-2.450526	 36.184240	 0.754587	-1.378229	 35.397820	-2.634230	 1.805555	 2.234155	-3.048586	 0.529015	 7.551050	 3.694710	 94.252760	 86.019360	 171.010700	-54.016850	 70.972140	 72.996970	-6.518432	-12.127220	 20.367380	-27.624390	-3.213472	 9.533796	 6.437017	 35.671460	-0.771858	 2.830251	 35.756010	-7.813440	-2.350882	 35.473990	 5.254307
-5.954581	-18.478800	-0.036543	-45.815130	 4.168685	 0.064897	 2.768124	-35.196720	 172.933500	-4.464417	-64.676810	-4.345561	 174.715700	 88.293140	-176.978500	-2.352640	 34.121220	-0.127918	 0.903303	-36.784630	-177.388900	 0.793309	-68.327580	 4.054958	-175.923800	 86.688900	 177.802200	 2.406521	 20.005440	-0.172996	-1.071504	 14.306260	 1.323524	-1.000724	 7.225551	-1.781573	-0.669536	 4.222626	-0.019638	-122.311300	 89.373490	-146.136300	 45.489110	 60.998380	-75.078240	-13.307210	-2.352582	-18.372500	 1.455427	-2.254355	-5.354840	-3.812334	 37.924440	-2.927599	-2.450526	 36.184240	 0.754587	-1.378229	 35.397820	-2.634230	 1.931346	 2.111245	-2.972664	 0.645422	 7.393398	 4.115176	 94.356920	 86.045770	 170.847800	-54.014090	 71.310010	 72.712100	-6.469919	-11.937260	 19.941260	-27.701380	-3.216291	 9.529160	 6.437017	 35.671460	-0.771858	 2.830251	 35.756010	-7.813440	-2.350882	 35.473990	 5.254307
-5.952323	-18.479070	-0.029285	-46.471360	 5.043852	-0.167165	 3.097370	-35.473360	 173.234900	-4.283053	-63.605500	-3.870090	 172.618800	 88.757460	-174.736700	-2.358600	 33.289230	-0.108380	 1.321225	-37.363510	-177.203300	 0.072872	-67.403210	 3.634660	-174.489000	 87.341630	 176.251800	 2.406812	 19.677360	-0.179498	-1.040861	 14.418530	 1.395259	-0.931850	 7.150531	-1.718279	-0.559071	 4.090015	-0.017047	-120.336500	 89.337360	-148.115600	 44.378820	 60.883950	-74.599870	-13.494970	-2.333661	-17.901890	 1.505757	-2.264297	-5.353400	-3.812334	 37.924440	-2.927599	-2.450526	 36.184240	 0.754587	-1.378229	 35.397820	-2.634230	 2.056662	 2.006644	-2.908895	 0.738812	 7.269482	 4.459138	 94.427730	 86.065530	 170.741500	-53.932850	 71.634200	 72.367220	-6.512520	-11.771890	 19.489280	-27.871070	-3.219618	 9.522900	 6.437017	 35.671460	-0.771858	 2.830251	 35.756010	-7.813440	-2.350882	 35.473990	 5.254307
-5.950516	-18.479460	-0.023182	-47.073540	 5.731128	-0.382026	 3.462424	-35.588550	 173.527700	-4.224285	-62.647000	-3.498138	 168.856200	 89.161870	-170.854900	-2.362843	 32.659250	-0.093786	 1.654244	-37.850690	-176.990200	-0.685698	-66.600290	 3.123366	-172.922700	 87.852970	 174.510500	 2.407017	 19.400140	-0.184985	-0.996910	 14.614440	 1.503783	-0.858377	 7.137875	-1.653305	-0.464422	 3.992626	-0.014556	-119.169500	 89.313290	-149.284400	 43.426240	 60.812360	-74.346760	-13.564960	-2.369449	-17.448170	 1.735615	-2.275383	-5.350530	-3.812334	 37.924440	-2.927599	-2.450526	 36.184240	 0.754587	-1.378229	 35.397820	-2.634230	 2.164498	 1.910015	-2.868587	 0.814352	 7.192481	 4.702987	 94.482610	 86.083380	 170.663900	-53.802020	 71.949800	 72.007140	-6.611741	-11.612430	 19.003510	-28.106000	-3.223769	 9.514033	 6.437017	 35.671460	-0.771858	 2.830251	 35.756010	-7.813440	-2.350882	 35.473990	 5.254307
-5.949055	-18.480040	-0.017692	-47.588420	 6.352872	-0.562891	 3.841247	-35.634210	 173.793800	-4.163998	-61.713260	-3.123263	 159.872800	 89.525220	-161.735400	-2.365959	 32.173360	-0.082634	 1.857618	-38.206260	-176.725600	-1.418970	-65.773330	 2.542452	-171.161100	 88.276150	 172.529100	 2.407125	 19.243110	-0.188083	-0.986147	 14.836170	 1.600327	-0.818528	 7.172955	-1.587255	-0.390682	 3.931820	-0.012452	-118.453800	 89.301700	-150.020700	 42.547650	 60.818420	-74.311970	-13.560360	-2.457284	-16.945520	 2.167586	-2.289763	-5.345514	-3.812334	 37.924440	-2.927599	-2.450526	 36.184240	 0.754587	-1.378229	 35.397820	-2.634230	 2.243377	 1.859979	-2.825028	 0.881864	 7.128683	 4.826123	 94.539020	 86.104240	 170.589400	-53.557550	 72.310550	 71.511210	-6.756849	-11.429680	 18.428170	-28.415230	-3.229123	 9.501831	 6.437017	 35.671460	-0.771858	 2.830251	 35.756010	-7.813440	-2.350882	 35.473990	 5.254307
-5.948296	-18.480590	-0.012655	-47.899500	 6.910661	-0.657127	 4.152203	-35.716820	 173.969500	-4.012053	-60.864490	-2.722879	 131.083400	 89.784200	-132.777700	-2.368133	 31.825730	-0.074701	 1.881063	-38.272060	-176.666300	-1.998895	-64.899690	 1.992848	-169.170300	 88.604930	 170.319000	 2.407107	 19.264550	-0.187662	-1.044905	 15.005480	 1.607236	-0.848706	 7.244453	-1.553199	-0.354667	 3.915496	-0.011357	-118.137200	 89.304510	-150.387500	 41.809470	 60.927510	-74.498540	-13.621840	-2.546684	-16.402000	 2.643439	-2.305024	-5.339446	-3.812334	 37.924440	-2.927599	-2.450526	 36.184240	 0.754587	-1.378229	 35.397820	-2.634230	 2.264759	 1.879010	-2.761574	 0.943080	 7.071637	 4.792148	 94.609300	 86.130670	 170.498400	-53.157360	 72.719000	 70.824070	-6.921348	-11.217730	 17.780190	-28.772320	-3.235111	 9.487618	 6.437017	 35.671460	-0.771858	 2.830251	 35.756010	-7.813440	-2.350882	 35.473990	 5.254307
-5.947748	-18.480920	-0.007984	-47.991340	 7.463325	-0.675866	 4.352355	-35.907290	 174.038500	-3.770165	-60.073030	-2.325738	 60.325910	 89.816540	-61.838420	-2.369205	 31.647990	-0.070671	 1.724051	-38.344240	-176.590400	-2.305241	-64.033470	 1.562670	-166.590900	 88.873600	 167.561600	 2.407043	 19.360210	-0.185768	-1.168148	 15.081950	 1.533144	-0.943046	 7.329799	-1.571636	-0.354726	 3.933621	-0.011300	-118.210500	 89.323330	-150.400500	 41.212610	 61.059510	-74.811870	-13.771130	-2.599326	-15.841950	 3.023960	-2.319600	-5.333682	-3.812334	 37.924440	-2.927599	-2.450526	 36.184240	 0.754587	-1.378229	 35.397820	-2.634230	 2.226786	 1.945253	-2.700053	 1.000105	 7.030029	 4.678305	 94.680950	 86.149690	 170.392500	-52.515830	 73.215820	 69.821690	-7.082337	-10.967120	 17.048050	-29.180240	-3.241688	 9.471563	 6.437017	 35.671460	-0.771858	 2.830251	 35.756010	-7.813440	-2.350882	 35.473990	 5.254307
-5.947377	-18.480750	-0.004284	-47.911020	 7.896677	-0.675558	 4.441973	-36.109510	 174.092000	-3.529950	-59.446570	-2.021025	 30.819010	 89.687840	-32.183670	-2.369141	 31.657400	-0.070887	 1.475421	-38.490880	-176.584500	-2.327202	-63.362380	 1.331918	-163.593500	 89.073590	 164.467200	 2.406928	 19.525680	-0.182497	-1.312432	 15.141220	 1.478916	-1.057596	 7.393243	-1.644432	-0.376072	 3.965764	-0.011877	-119.742500	 89.370370	-148.946000	 40.878680	 61.157090	-75.242120	-13.986240	-2.623146	-15.547460	 3.220567	-2.329669	-5.330217	-3.812334	 37.924440	-2.927599	-2.450526	 36.184240	 0.754587	-1.378229	 35.397820	-2.634230	 2.160500	 2.009450	-2.708341	 1.039081	 7.017926	 4.571447	 94.647000	 86.111030	 170.389200	-51.730090	 73.732730	 68.666220	-7.176035	-10.764480	 16.436300	-29.565930	-3.247605	 9.456629	 6.437017	 35.671460	-0.771858	 2.830251	 35.756010	-7.813440	-2.350882	 35.473990	 5.254307
-5.947554	-18.480870	-0.000965	-47.764690	 8.259493	-0.688836	 4.470743	-36.213180	 174.145900	-3.300601	-58.914060	-1.779690	 20.758180	 89.551930	-22.000980	-2.368690	 31.733110	-0.072597	 1.225943	-38.564140	-176.572700	-2.187770	-62.788640	 1.252334	-160.022200	 89.233830	 160.868400	 2.406697	 19.810860	-0.176852	-1.460619	 15.186090	 1.476832	-1.178017	 7.437299	-1.741320	-0.409165	 3.989453	-0.012834	-123.507900	 89.447150	-145.251400	 40.797270	 61.202500	-75.868960	-14.213950	-2.638257	-15.465220	 3.307798	-2.334730	-5.328621	-3.812334	 37.924440	-2.927599	-2.450526	 36.184240	 0.754587	-1.378229	 35.397820	-2.634230	 2.076357	 2.033379	-2.795907	 1.065243	 7.028760	 4.487080	 94.541500	 86.031190	 170.453600	-50.752190	 74.316730	 67.297190	-7.192428	-10.588230	 15.885770	-29.953310	-3.253086	 9.441447	 6.437017	 35.671460	-0.771858	 2.830251	 35.756010	-7.813440	-2.350882	 35.473990	 5.254307
